<svg width="13" height="14" viewBox="0 0 13 14" fill="none" xmlns="http://www.w3.org/2000/svg">
<path fill-rule="evenodd" clip-rule="evenodd" d="M9.46812 0.823394V1.51332C11.4739 1.70792 12.5 2.81652 12.5 4.80965V10.3232C12.5 12.5404 11.2362 13.6667 8.74928 13.6667H4.25072C1.76377 13.6667 0.5 12.5404 0.5 10.3232V4.80965C0.5 3.48286 0.952174 2.53347 1.87971 1.97917C2.02592 1.87937 2.21509 1.8724 2.36801 1.96118C2.52094 2.04997 2.61124 2.21918 2.60113 2.398C2.59101 2.57681 2.48222 2.73437 2.32029 2.80473C1.7058 3.17033 1.41594 3.80719 1.41594 4.80965V4.98655H9.87391C10.1268 4.98655 10.3319 5.19512 10.3319 5.4524C10.3319 5.70968 10.1268 5.91825 9.87391 5.91825H1.41594V10.3232C1.41594 12.0156 2.23913 12.7173 4.25072 12.7291H8.74928C10.7319 12.7291 11.5783 12.0097 11.5783 10.3173V4.80375C11.5783 3.32954 10.9348 2.61603 9.46812 2.44502V2.89318C9.43429 3.13205 9.22868 3.30644 8.9916 3.29733C8.75451 3.28823 8.56241 3.09858 8.54638 2.8578V0.782116C8.55087 0.657465 8.60432 0.539855 8.69476 0.455619C8.7852 0.371383 8.90507 0.327558 9.02754 0.333958C9.28003 0.349751 9.47484 0.566165 9.46812 0.823394ZM4.30585 3.1952C4.21871 3.28274 4.10072 3.33112 3.97826 3.32954C3.7276 3.32311 3.52863 3.11283 3.53188 2.8578V0.823394C3.55824 0.584734 3.75665 0.404308 3.99275 0.404308C4.22885 0.404308 4.42727 0.584734 4.45362 0.823394V1.46615H7.07391C7.32684 1.46615 7.53188 1.67472 7.53188 1.932C7.53188 2.18928 7.32684 2.39785 7.07391 2.39785H4.44203V2.8637C4.44204 2.98827 4.39299 3.10767 4.30585 3.1952ZM9.2942 7.41015C8.97404 7.41015 8.71449 7.67416 8.71449 7.99983C8.71449 8.3255 8.97404 8.58951 9.2942 8.58951C9.61437 8.58951 9.87391 8.3255 9.87391 7.99983C9.87392 7.84241 9.81205 7.69152 9.70208 7.58076C9.5921 7.47 9.44316 7.40857 9.28841 7.41015H9.2942ZM5.93188 7.99983C5.93188 7.67416 6.19143 7.41015 6.51159 7.41015C6.83176 7.41015 7.0913 7.67416 7.0913 7.99983C7.0913 8.3255 6.83176 8.58951 6.51159 8.58951C6.19143 8.58951 5.93188 8.3255 5.93188 7.99983ZM3.73478 7.41015C3.41462 7.41015 3.15507 7.67416 3.15507 7.99983C3.15507 8.3255 3.41462 8.58951 3.73478 8.58951C4.05495 8.58951 4.31449 8.3255 4.31449 7.99983C4.3145 7.84241 4.25263 7.69152 4.14266 7.58076C4.03268 7.47 3.88374 7.40857 3.72899 7.41015H3.73478ZM8.71449 10.388C8.71449 10.0624 8.97404 9.79836 9.2942 9.79836H9.28841C9.44316 9.79679 9.5921 9.85822 9.70208 9.96898C9.81205 10.0797 9.87392 10.2306 9.87391 10.388C9.87391 10.7137 9.61437 10.9777 9.2942 10.9777C8.97404 10.9777 8.71449 10.7137 8.71449 10.388ZM6.51159 9.79836C6.19143 9.79836 5.93188 10.0624 5.93188 10.388C5.93188 10.7137 6.19143 10.9777 6.51159 10.9777C6.83176 10.9777 7.0913 10.7137 7.0913 10.388C7.0913 10.0624 6.83176 9.79836 6.51159 9.79836ZM3.15507 10.388C3.15507 10.0624 3.41462 9.79836 3.73478 9.79836H3.72899C3.88374 9.79679 4.03268 9.85822 4.14266 9.96898C4.25263 10.0797 4.3145 10.2306 4.31449 10.388C4.31449 10.7137 4.05495 10.9777 3.73478 10.9777C3.41462 10.9777 3.15507 10.7137 3.15507 10.388Z" fill="#130F26"/>
</svg>
