<svg width="16" height="17" viewBox="0 0 16 17" fill="none" xmlns="http://www.w3.org/2000/svg">
<path d="M8 5.61043V8.61043" stroke="#696F79" stroke-linecap="round" stroke-linejoin="round"/>
<path d="M10.5981 10.1104L8 8.61043" stroke="#696F79" stroke-linecap="round" stroke-linejoin="round"/>
<path d="M11.5104 6.84268H14.0104V4.34268" stroke="#696F79" stroke-linecap="round" stroke-linejoin="round"/>
<path d="M11.8891 12.4995C11.1199 13.2687 10.1399 13.7925 9.073 14.0047C8.0061 14.217 6.90023 14.108 5.89524 13.6918C4.89025 13.2755 4.03126 12.5705 3.42692 11.6661C2.82257 10.7616 2.5 9.69822 2.5 8.61043C2.5 7.52263 2.82257 6.45926 3.42692 5.55479C4.03126 4.65032 4.89025 3.94537 5.89524 3.52909C6.90023 3.11281 8.0061 3.00389 9.073 3.21611C10.1399 3.42833 11.1199 3.95215 11.8891 4.72134L14.0104 6.84266" stroke="#696F79" stroke-linecap="round" stroke-linejoin="round"/>
</svg>
