<svg width="16" height="17" viewBox="0 0 16 17" fill="none" xmlns="http://www.w3.org/2000/svg">
<path d="M3.16809 11.9472C3.71729 10.842 4.00223 9.62428 4.00041 8.39014C3.99985 7.7904 4.1344 7.19824 4.39408 6.65764C4.65376 6.11704 5.03189 5.64188 5.50039 5.26746" stroke="#696F79" stroke-linecap="round" stroke-linejoin="round"/>
<path d="M8.00037 8.39013C8.00352 10.4232 7.48775 12.4234 6.50189 14.2014" stroke="#696F79" stroke-linecap="round" stroke-linejoin="round"/>
<path d="M6.00037 8.39013C6.00037 7.8597 6.21108 7.35099 6.58615 6.97592C6.96123 6.60084 7.46993 6.39013 8.00037 6.39013C8.5308 6.39013 9.03951 6.60084 9.41458 6.97592C9.78965 7.35099 10.0004 7.8597 10.0004 8.39013C10.0033 10.4516 9.54916 12.4881 8.67066 14.353" stroke="#696F79" stroke-linecap="round" stroke-linejoin="round"/>
<path d="M13.6603 11.8901C13.887 10.7372 14.0009 9.56504 14.0004 8.39009C14.0004 6.7988 13.3682 5.27267 12.243 4.14745C11.1178 3.02224 9.59165 2.39009 8.00035 2.39009C6.40905 2.39009 4.88293 3.02224 3.75771 4.14745C2.63249 5.27267 2.00035 6.7988 2.00035 8.39009C2.0011 9.07133 1.88564 9.7477 1.65894 10.3901" stroke="#696F79" stroke-linecap="round" stroke-linejoin="round"/>
<path d="M5.80038 10.3901C5.58693 11.4415 5.20459 12.4513 4.66821 13.3804" stroke="#696F79" stroke-linecap="round" stroke-linejoin="round"/>
<path d="M7.50037 4.42108C8.06336 4.35066 8.63489 4.40073 9.17707 4.56796C9.71925 4.73519 10.2197 5.01576 10.6452 5.39107C11.0707 5.76638 11.4116 6.22785 11.6452 6.7449C11.8789 7.26195 11.9999 7.82275 12.0004 8.39013C12.0005 9.05871 11.9592 9.72664 11.8766 10.3901" stroke="#696F79" stroke-linecap="round" stroke-linejoin="round"/>
<path d="M11.4963 12.3901C11.4011 12.76 11.2932 13.1246 11.1725 13.4838" stroke="#696F79" stroke-linecap="round" stroke-linejoin="round"/>
</svg>
