<svg width="23" height="22" viewBox="0 0 23 22" fill="none" xmlns="http://www.w3.org/2000/svg">
<path d="M2.69803 14.4643L3.3944 14.2429L2.69803 14.4643ZM1.63937 8.45481L2.34326 8.65099L1.63937 8.45481ZM6.06008 3.8893L5.62446 3.30263H5.62446L6.06008 3.8893ZM1.74737 8.11512L2.43531 8.36146L1.74737 8.11512ZM5.58054 20.172L5.16688 20.7743H5.16688L5.58054 20.172ZM5.2978 19.962L4.84085 20.5322L5.2978 19.962ZM20.302 14.4643L19.6056 14.2429L20.302 14.4643ZM17.7022 19.962L18.1592 20.5322L17.7022 19.962ZM17.4195 20.172L17.8331 20.7743L17.4195 20.172ZM16.9399 3.8893L17.3755 3.30263L16.9399 3.8893ZM21.2526 8.11512L20.5647 8.36146L21.2526 8.11512ZM21.3606 8.45481L20.6567 8.65099L21.3606 8.45481ZM11.6747 1.00327L11.6474 1.73348L11.6747 1.00327ZM11.3253 1.00327L11.3526 1.73348L11.3253 1.00327ZM9.59338 15.6822C9.18981 15.6822 8.86266 16.0093 8.86266 16.4129C8.86266 16.8164 9.18981 17.1436 9.59338 17.1436V15.6822ZM13.4066 17.1436C13.8102 17.1436 14.1373 16.8164 14.1373 16.4129C14.1373 16.0093 13.8102 15.6822 13.4066 15.6822V17.1436ZM3.3944 14.2429C2.90415 12.7009 2.55461 11.5983 2.37116 10.7029C2.19105 9.82391 2.18681 9.21231 2.34326 8.65099L0.935484 8.25863C0.693973 9.12517 0.733524 9.99111 0.93947 10.9963C1.14207 11.9851 1.52083 13.1733 2.00166 14.6857L3.3944 14.2429ZM5.62446 3.30263C4.36607 4.23703 3.37495 4.97171 2.64116 5.65108C1.89432 6.34252 1.36286 7.02142 1.05943 7.86878L2.43531 8.36146C2.63113 7.8146 2.98487 7.32446 3.634 6.72347C4.29618 6.11042 5.21179 5.42931 6.4957 4.47597L5.62446 3.30263ZM2.34326 8.65099C2.37047 8.55334 2.40118 8.45677 2.43531 8.36146L1.05943 7.86878C1.01346 7.99716 0.972116 8.1272 0.935484 8.25863L2.34326 8.65099ZM11.5 20.2693C9.91255 20.2693 8.78126 20.2683 7.89429 20.1702C7.02525 20.0741 6.46201 19.8909 5.9942 19.5696L5.16688 20.7743C5.90483 21.2811 6.73009 21.5118 7.73372 21.6228C8.71943 21.7317 9.94499 21.7307 11.5 21.7307V20.2693ZM2.00166 14.6857C2.48245 16.198 2.85945 17.3869 3.26435 18.3089C3.67577 19.2456 4.14295 19.973 4.84085 20.5322L5.75475 19.3918C5.30948 19.035 4.96232 18.5407 4.60241 17.7212C4.23599 16.8869 3.88468 15.785 3.3944 14.2429L2.00166 14.6857ZM5.9942 19.5696C5.91231 19.5134 5.83244 19.4541 5.75475 19.3918L4.84085 20.5322C4.94656 20.6169 5.05531 20.6977 5.16688 20.7743L5.9942 19.5696ZM19.6056 14.2429C19.1153 15.785 18.764 16.8869 18.3976 17.7212C18.0377 18.5407 17.6905 19.035 17.2452 19.3918L18.1592 20.5322C18.857 19.973 19.3242 19.2456 19.7357 18.3089C20.1406 17.3869 20.5175 16.198 20.9983 14.6857L19.6056 14.2429ZM11.5 21.7307C13.055 21.7307 14.2806 21.7317 15.2663 21.6228C16.2699 21.5118 17.0952 21.2811 17.8331 20.7743L17.0058 19.5696C16.538 19.8909 15.9748 20.0741 15.1057 20.1702C14.2187 20.2683 13.0875 20.2693 11.5 20.2693V21.7307ZM17.2452 19.3918C17.1676 19.4541 17.0877 19.5134 17.0058 19.5696L17.8331 20.7743C17.9447 20.6977 18.0534 20.6169 18.1592 20.5322L17.2452 19.3918ZM16.5043 4.47597C17.7882 5.42931 18.7038 6.11042 19.366 6.72347C20.0151 7.32446 20.3689 7.8146 20.5647 8.36146L21.9406 7.86878C21.6371 7.02142 21.1057 6.34252 20.3588 5.65108C19.625 4.97171 18.6339 4.23703 17.3755 3.30263L16.5043 4.47597ZM20.9983 14.6857C21.4792 13.1733 21.8579 11.9851 22.0605 10.9963C22.2665 9.99111 22.306 9.12517 22.0645 8.25863L20.6567 8.65099C20.8132 9.21231 20.8089 9.82391 20.6288 10.7029C20.4454 11.5983 20.0959 12.7009 19.6056 14.2429L20.9983 14.6857ZM20.5647 8.36146C20.5988 8.45676 20.6295 8.55334 20.6567 8.65099L22.0645 8.25863C22.0279 8.1272 21.9865 7.99716 21.9406 7.86878L20.5647 8.36146ZM17.3755 3.30263C16.1173 2.36835 15.1271 1.63187 14.2678 1.12834C13.3937 0.616201 12.5932 0.306481 11.7021 0.273073L11.6474 1.73348C12.208 1.7545 12.7689 1.94392 13.5289 2.38926C14.3037 2.8432 15.2202 3.52252 16.5043 4.47597L17.3755 3.30263ZM6.4957 4.47597C7.77976 3.52252 8.69633 2.8432 9.47105 2.38926C10.2311 1.94392 10.792 1.7545 11.3526 1.73348L11.2979 0.273073C10.4068 0.306481 9.60628 0.616201 8.73223 1.12834C7.87287 1.63187 6.88271 2.36835 5.62446 3.30263L6.4957 4.47597ZM11.7021 0.273073C11.5674 0.268023 11.4326 0.268023 11.2979 0.273073L11.3526 1.73348C11.4508 1.72979 11.5492 1.72979 11.6474 1.73348L11.7021 0.273073ZM9.59338 17.1436H13.4066V15.6822H9.59338V17.1436Z" fill="#5E5F60"/>
</svg>
