<svg width="36" height="36" viewBox="0 0 36 36" fill="none" xmlns="http://www.w3.org/2000/svg">
<rect width="36" height="36" rx="18" fill="#2FA4D9" fill-opacity="0.2"/>
<path d="M23.7784 16.802C23.8561 16.2802 23.8306 15.7461 23.7018 15.2324C23.5317 14.5539 23.1813 13.9113 22.6507 13.3807C22.1201 12.8501 21.4775 12.4997 20.799 12.3296C20.2854 12.2008 19.7512 12.1753 19.2294 12.2531" stroke="#2FA4D9" stroke-opacity="0.85" stroke-linecap="round" stroke-linejoin="round"/>
<path d="M21.443 16.5549C21.5263 15.996 21.3529 15.4061 20.9226 14.9758C20.4923 14.5456 19.9025 14.3721 19.3435 14.4554" fill="#2FA4D9"/>
<path d="M21.443 16.5549C21.5263 15.996 21.3529 15.4061 20.9226 14.9758C20.4923 14.5456 19.9025 14.3721 19.3435 14.4554" stroke="#2FA4D9" stroke-opacity="0.85" stroke-linecap="round" stroke-linejoin="round"/>
<path d="M15.3463 13.1675C15.5699 13.1675 15.7758 13.2887 15.8844 13.4842L16.6371 14.8401C16.7357 15.0176 16.7403 15.2324 16.6495 15.414L15.9243 16.8643C15.9243 16.8643 16.1345 17.9448 17.014 18.8243C17.8935 19.7038 18.9703 19.9103 18.9703 19.9103L20.4204 19.1853C20.6022 19.0944 20.8171 19.0991 20.9947 19.1978L22.3545 19.9538C22.5497 20.0624 22.6708 20.2683 22.6708 20.4917V22.0528C22.6708 22.8478 21.9324 23.4219 21.1791 23.1678C19.6321 22.6458 17.2306 21.6518 15.7085 20.1297C14.1864 18.6076 13.1925 16.2062 12.6705 14.6591C12.4163 13.9059 12.9905 13.1675 13.7855 13.1675H15.3463Z" stroke="#2FA4D9" stroke-linejoin="round"/>
</svg>
