<svg width="36" height="36" viewBox="0 0 36 36" fill="none" xmlns="http://www.w3.org/2000/svg">
<rect width="36" height="36" rx="18" fill="#2FA4D9" fill-opacity="0.2"/>
<g clip-path="url(#clip0_9_523)">
<path fill-rule="evenodd" clip-rule="evenodd" d="M11.75 12C10.7835 12 10 12.7835 10 13.75V14.4858C9.99984 14.4948 9.99984 14.5038 10 14.5128V22.25C10 23.2165 10.7835 24 11.75 24H24.25C25.2165 24 26 23.2165 26 22.25V14.5127C26.0002 14.5038 26.0002 14.4948 26 14.4859V13.75C26 12.7835 25.2165 12 24.25 12H11.75ZM24.5 14.0703V13.75C24.5 13.6119 24.3881 13.5 24.25 13.5H11.75C11.6119 13.5 11.5 13.6119 11.5 13.75V14.0703L18 17.8806L24.5 14.0703ZM11.5 15.809V22.25C11.5 22.3881 11.6119 22.5 11.75 22.5H24.25C24.3881 22.5 24.5 22.3881 24.5 22.25V15.809L18.3793 19.397C18.1451 19.5343 17.8549 19.5343 17.6207 19.397L11.5 15.809Z" fill="#2FA4D9"/>
</g>
<defs>
<clipPath id="clip0_9_523">
<rect width="16" height="16" fill="white" transform="translate(10 10)"/>
</clipPath>
</defs>
</svg>
