<svg width="36" height="36" viewBox="0 0 36 36" fill="none" xmlns="http://www.w3.org/2000/svg">
<rect width="36" height="36" rx="18" fill="#D00000" fill-opacity="0.2"/>
<path fill-rule="evenodd" clip-rule="evenodd" d="M12.3335 19.2993C12.3335 19.5684 12.1095 19.787 11.8335 19.787C11.5576 19.787 11.3336 19.5684 11.3336 19.2993V14.4762C11.3336 12.927 12.6256 11.6667 14.2144 11.6667H17.3784C18.9705 11.6667 20.2658 12.9302 20.2658 14.4832V15.0729C20.2658 15.3414 20.0418 15.5599 19.7658 15.5599C19.4899 15.5599 19.2659 15.3414 19.2659 15.0729V14.4832C19.2659 13.4673 18.4192 12.642 17.3784 12.642H14.2144C13.1769 12.642 12.3335 13.4654 12.3335 14.4762V19.2993ZM19.2657 20.9278C19.2657 20.6586 19.4897 20.4401 19.7656 20.4401C20.0416 20.4401 20.2656 20.6586 20.2656 20.9278V21.5238C20.2656 23.0729 18.9735 24.3333 17.3847 24.3333H14.2201C12.6287 24.3333 11.3334 23.0698 11.3334 21.5168C11.3334 21.2476 11.5574 21.0297 11.8333 21.0297C12.1093 21.0297 12.3333 21.2476 12.3333 21.5168C12.3333 22.5327 13.1799 23.358 14.2201 23.358H17.3847C18.4223 23.358 19.2657 22.5352 19.2657 21.5238V20.9278ZM24.6289 17.8139C24.5516 17.6309 24.3692 17.5118 24.1666 17.5118H16.3661C16.0902 17.5118 15.8655 17.7309 15.8655 18.0001C15.8655 18.2693 16.0902 18.4878 16.3661 18.4878H22.9563L21.9168 19.4974C21.7208 19.6874 21.7208 19.9958 21.9155 20.1871C22.0129 20.2827 22.1415 20.3309 22.2694 20.3309C22.3973 20.3309 22.5246 20.2827 22.6226 20.1884L24.5198 18.3459C24.6627 18.2066 24.7062 17.9963 24.6289 17.8139ZM22.7479 17.1072C22.6207 17.1072 22.4934 17.0596 22.396 16.9659L21.9175 16.5042C21.7214 16.3148 21.7201 16.0057 21.9142 15.8151C22.109 15.6226 22.4246 15.6213 22.6213 15.8113L23.0992 16.2724C23.2959 16.4624 23.2972 16.7708 23.1031 16.9621C23.005 17.0584 22.8765 17.1072 22.7479 17.1072Z" fill="#D00000"/>
</svg>
