<svg width="36" height="36" viewBox="0 0 36 36" fill="none" xmlns="http://www.w3.org/2000/svg">
<rect width="36" height="36" rx="18" fill="#2FA4D9" fill-opacity="0.2"/>
<path d="M23 15.5H13C12.7239 15.5 12.5 15.7239 12.5 16V23C12.5 23.2761 12.7239 23.5 13 23.5H23C23.2761 23.5 23.5 23.2761 23.5 23V16C23.5 15.7239 23.2761 15.5 23 15.5Z" stroke="#2FA4D9" stroke-linecap="round" stroke-linejoin="round"/>
<path d="M15.75 15.5V13.25C15.75 12.6533 15.9871 12.081 16.409 11.659C16.831 11.2371 17.4033 11 18 11C18.5967 11 19.169 11.2371 19.591 11.659C20.0129 12.081 20.25 12.6533 20.25 13.25V15.5" stroke="#2FA4D9" stroke-linecap="round" stroke-linejoin="round"/>
<path d="M18 20.25C18.4142 20.25 18.75 19.9142 18.75 19.5C18.75 19.0858 18.4142 18.75 18 18.75C17.5858 18.75 17.25 19.0858 17.25 19.5C17.25 19.9142 17.5858 20.25 18 20.25Z" fill="#2FA4D9"/>
</svg>
