<svg width="23" height="22" viewBox="0 0 23 22" fill="none" xmlns="http://www.w3.org/2000/svg">
<path d="M14.75 8C14.75 9.79493 13.2949 11.25 11.5 11.25V12.75C14.1234 12.75 16.25 10.6234 16.25 8H14.75ZM11.5 11.25C9.70507 11.25 8.25 9.79493 8.25 8H6.75C6.75 10.6234 8.87665 12.75 11.5 12.75V11.25ZM8.25 8C8.25 6.20507 9.70507 4.75 11.5 4.75V3.25C8.87665 3.25 6.75 5.37665 6.75 8H8.25ZM11.5 4.75C13.2949 4.75 14.75 6.20507 14.75 8H16.25C16.25 5.37665 14.1234 3.25 11.5 3.25V4.75ZM8.5 15.75H14.5V14.25H8.5V15.75ZM2.25 11C2.25 5.89137 6.39137 1.75 11.5 1.75V0.25C5.56294 0.25 0.75 5.06294 0.75 11H2.25ZM11.5 1.75C16.6086 1.75 20.75 5.89137 20.75 11H22.25C22.25 5.06294 17.4371 0.25 11.5 0.25V1.75ZM20.75 11C20.75 13.6233 19.659 15.9905 17.9039 17.6748L18.9425 18.7571C20.9801 16.8016 22.25 14.0485 22.25 11H20.75ZM17.9039 17.6748C16.2412 19.2705 13.9858 20.25 11.5 20.25V21.75C14.3882 21.75 17.0117 20.61 18.9425 18.7571L17.9039 17.6748ZM14.5 15.75C16.076 15.75 17.3915 16.8726 17.6876 18.3621L19.1588 18.0697C18.726 15.8918 16.8055 14.25 14.5 14.25V15.75ZM11.5 20.25C9.01425 20.25 6.75884 19.2705 5.09612 17.6748L4.05751 18.7571C5.98833 20.61 8.61182 21.75 11.5 21.75V20.25ZM5.09612 17.6748C3.34103 15.9905 2.25 13.6233 2.25 11H0.75C0.75 14.0485 2.01989 16.8016 4.05751 18.7571L5.09612 17.6748ZM8.5 14.25C6.19445 14.25 4.27403 15.8918 3.8412 18.0697L5.31243 18.3621C5.60846 16.8726 6.92396 15.75 8.5 15.75V14.25Z" fill="#5E5F60"/>
</svg>
