<svg width="21" height="20" viewBox="0 0 21 20" fill="none" xmlns="http://www.w3.org/2000/svg">
<path fill-rule="evenodd" clip-rule="evenodd" d="M9.16665 0C4.38019 0 0.5 3.88019 0.5 8.66665C0.5 13.4531 4.38019 17.3333 9.16665 17.3333C13.9531 17.3333 17.8333 13.4531 17.8333 8.66665C17.8333 3.88019 13.9531 0 9.16665 0ZM1.83333 8.66665C1.83333 4.61657 5.11657 1.33333 9.16665 1.33333C13.2167 1.33333 16.5 4.61657 16.5 8.66665C16.5 12.7167 13.2167 16 9.16665 16C5.11657 16 1.83333 12.7167 1.83333 8.66665Z" fill="#5E5F60"/>
<path d="M16.7492 15.3064C16.4889 15.0461 16.0668 15.0461 15.8064 15.3064C15.5461 15.5668 15.5461 15.9889 15.8064 16.2492L19.3619 19.8047C19.6222 20.0651 20.0443 20.0651 20.3047 19.8047C20.565 19.5444 20.565 19.1223 20.3047 18.8619L16.7492 15.3064Z" fill="#5E5F60"/>
</svg>
