<svg width="16" height="17" viewBox="0 0 16 17" fill="none" xmlns="http://www.w3.org/2000/svg">
<g clip-path="url(#clip0_6_51947)">
<path d="M14.6667 12.1646H1.33335C1.15654 12.1646 0.986973 12.2349 0.861949 12.3599C0.736925 12.4849 0.666687 12.6545 0.666687 12.8313C0.666687 13.0081 0.736925 13.1777 0.861949 13.3027C0.986973 13.4277 1.15654 13.498 1.33335 13.498H14.6667C14.8435 13.498 15.0131 13.4277 15.1381 13.3027C15.2631 13.1777 15.3334 13.0081 15.3334 12.8313C15.3334 12.6545 15.2631 12.4849 15.1381 12.3599C15.0131 12.2349 14.8435 12.1646 14.6667 12.1646ZM14.6667 14.8313H1.33335C1.15654 14.8313 0.986973 14.9015 0.861949 15.0266C0.736925 15.1516 0.666687 15.3211 0.666687 15.498C0.666687 15.6748 0.736925 15.8443 0.861949 15.9694C0.986973 16.0944 1.15654 16.1646 1.33335 16.1646H14.6667C14.8435 16.1646 15.0131 16.0944 15.1381 15.9694C15.2631 15.8443 15.3334 15.6748 15.3334 15.498C15.3334 15.3211 15.2631 15.1516 15.1381 15.0266C15.0131 14.9015 14.8435 14.8313 14.6667 14.8313ZM4.00002 5.49796C3.86817 5.49796 3.73927 5.53706 3.62964 5.61031C3.52001 5.68356 3.43456 5.78768 3.3841 5.9095C3.33364 6.03132 3.32044 6.16536 3.34616 6.29468C3.37189 6.424 3.43538 6.54279 3.52862 6.63603C3.62185 6.72926 3.74064 6.79276 3.86996 6.81848C3.99928 6.8442 4.13332 6.831 4.25514 6.78054C4.37696 6.73008 4.48108 6.64464 4.55433 6.535C4.62759 6.42537 4.66669 6.29648 4.66669 6.16462C4.66669 5.98781 4.59645 5.81824 4.47142 5.69322C4.3464 5.56819 4.17683 5.49796 4.00002 5.49796ZM13.3334 1.49796H2.66669C2.13625 1.49796 1.62755 1.70867 1.25247 2.08374C0.877401 2.45882 0.666687 2.96752 0.666687 3.49796V8.83129C0.666687 9.36172 0.877401 9.87043 1.25247 10.2455C1.62755 10.6206 2.13625 10.8313 2.66669 10.8313H13.3334C13.8638 10.8313 14.3725 10.6206 14.7476 10.2455C15.1226 9.87043 15.3334 9.36172 15.3334 8.83129V3.49796C15.3334 2.96752 15.1226 2.45882 14.7476 2.08374C14.3725 1.70867 13.8638 1.49796 13.3334 1.49796ZM14 8.83129C14 9.0081 13.9298 9.17767 13.8048 9.30269C13.6797 9.42772 13.5102 9.49796 13.3334 9.49796H2.66669C2.48988 9.49796 2.32031 9.42772 2.19528 9.30269C2.07026 9.17767 2.00002 9.0081 2.00002 8.83129V3.49796C2.00002 3.32115 2.07026 3.15158 2.19528 3.02655C2.32031 2.90153 2.48988 2.83129 2.66669 2.83129H13.3334C13.5102 2.83129 13.6797 2.90153 13.8048 3.02655C13.9298 3.15158 14 3.32115 14 3.49796V8.83129ZM8.00002 4.16462C7.60446 4.16462 7.21778 4.28192 6.88888 4.50168C6.55998 4.72145 6.30364 5.0338 6.15226 5.39926C6.00089 5.76471 5.96128 6.16684 6.03845 6.5548C6.11562 6.94277 6.3061 7.29913 6.58581 7.57884C6.86551 7.85854 7.22188 8.04902 7.60984 8.12619C7.9978 8.20336 8.39993 8.16376 8.76539 8.01238C9.13084 7.86101 9.4432 7.60466 9.66296 7.27576C9.88272 6.94687 10 6.56019 10 6.16462C10 5.63419 9.78931 5.12548 9.41423 4.75041C9.03916 4.37534 8.53045 4.16462 8.00002 4.16462ZM8.00002 6.83129C7.86817 6.83129 7.73927 6.79219 7.62964 6.71894C7.52001 6.64568 7.43456 6.54156 7.3841 6.41975C7.33364 6.29793 7.32044 6.16388 7.34616 6.03456C7.37189 5.90524 7.43538 5.78645 7.52862 5.69322C7.62185 5.59998 7.74064 5.53649 7.86996 5.51077C7.99928 5.48504 8.13333 5.49825 8.25514 5.5487C8.37696 5.59916 8.48108 5.68461 8.55433 5.79424C8.62759 5.90388 8.66669 6.03277 8.66669 6.16462C8.66669 6.34143 8.59645 6.511 8.47142 6.63603C8.3464 6.76105 8.17683 6.83129 8.00002 6.83129ZM12 5.49796C11.8682 5.49796 11.7393 5.53706 11.6296 5.61031C11.52 5.68356 11.4346 5.78768 11.3841 5.9095C11.3336 6.03132 11.3204 6.16536 11.3462 6.29468C11.3719 6.424 11.4354 6.54279 11.5286 6.63603C11.6219 6.72926 11.7406 6.79276 11.87 6.81848C11.9993 6.8442 12.1333 6.831 12.2551 6.78054C12.377 6.73008 12.4811 6.64464 12.5543 6.535C12.6276 6.42537 12.6667 6.29648 12.6667 6.16462C12.6667 5.98781 12.5964 5.81824 12.4714 5.69322C12.3464 5.56819 12.1768 5.49796 12 5.49796Z" fill="#696F79"/>
</g>
<defs>
<clipPath id="clip0_6_51947">
<rect width="16" height="16" fill="white" transform="translate(0 0.831291)"/>
</clipPath>
</defs>
</svg>
